<?xml version="1.0" encoding="UTF-8"?>
<!-- Created with Inkscape (http://www.inkscape.org/) -->
<svg id="svg41833" width="256" height="144" version="1.1" viewBox="0 0 67.7 38.1" xmlns="http://www.w3.org/2000/svg">
 <g id="layer1">
  <text id="text43104" transform="matrix(.369 0 0 .642 1.34 -3.11)" font-family="Corbel" font-size="22px" font-style="italic" font-weight="bold" style="font-variant-caps:normal;font-variant-east-asian:normal;font-variant-ligatures:normal;font-variant-numeric:normal;line-height:1.25;shape-inside:url(#rect43106);white-space:pre" xml:space="preserve"><tspan id="tspan1" x="24.990234" y="55.583008">110kV Software</tspan></text>
  <g fill="none">
   <path id="path59262" d="m4.02 24.4 13.3-4.56 15 2.14 8.22-1.7 8.49 0.357 7.86 3.57 5.54-1.34 2.24-1.33" stroke="#000" stroke-width=".265px"/>
   <ellipse id="path59286" cx="61.2" cy="7.15" rx="4.07" ry="4.47" stroke="#002727" stroke-linecap="square" stroke-linejoin="round" stroke-width=".439" style="paint-order:fill markers stroke"/>
   <g stroke="#000" stroke-width=".265px">
    <path id="path1" d="m12.9 21.4c0.387-2.98 4.15-10.2 4.15-10.2l3.32 9.06"/>
    <path id="path2" d="m12.3 13 4.65-1.97 4.82 3.31-4.91 0.536z"/>
    <path id="path1-5" d="m41.1 20.1c0.387-2.98 4.19-8.89 4.19-8.89l3 9.45"/>
    <path id="path2-7" d="m40.7 13.1 4.65-1.97 4.82 3.31-4.91 0.536z"/>
    <path id="path3" d="m3.97 16.4c2.36-2.16 5.52-3.42 8.72-3.49 3.16-0.0626 6.23 0.996 9.37 1.39 6.32 0.8 12.7-1.1 19-1.12 3.08-0.0115 6.17 0.421 9.11 1.34 1.9 0.594 3.74 1.39 5.64 1.96 1.91 0.576 3.92 0.933 5.89 0.621 0.938-0.149 1.85-0.449 2.7-0.885"/>
    <path id="path3-5" transform="translate(-.0193 -1.6)" d="m3.52 15.1c2.12-1.7 4.76-2.76 7.47-2.99 3.33-0.281 6.62 0.647 9.93 1.13 5.84 0.851 11.8 0.307 17.7-0.277 2.11-0.21 4.23-0.425 6.34-0.187 3.76 0.425 7.21 2.26 10.9 3.1 2.83 0.646 5.8 0.695 8.65 0.142"/>
   </g>
  </g>
  <g id="g2" transform="matrix(.0841 0 0 .0788 .52 25.6)">
   <ellipse id="path846" cx="64.7" cy="53.3" rx="41" ry="39.5" fill="#ff0" fill-rule="evenodd" stroke="#002727" stroke-linecap="square" stroke-linejoin="round" stroke-width="6.62" style="paint-order:fill markers stroke"/>
   <path id="path33057" d="m65.4 25.3-24 35.1 27.9-4.95-7.59 27.1 27.2-39.1-30 3.71z" fill="none" stroke="#000" stroke-width="1.41"/>
  </g>
  <text id="text39681" transform="scale(1.04 .963)" x="10.405999" y="36.591976" font-family="sans-serif" font-size="2.49px" stroke-width=".311" style="line-height:1.25" xml:space="preserve"><tspan id="tspan39679" x="10.405999" y="36.591976" stroke-width=".311">Handmade applications</tspan></text>
 </g>
</svg>
