<?xml version="1.0" encoding="UTF-8"?>
<!-- Created with Inkscape (http://www.inkscape.org/) -->
<svg id="svg935" width="128" height="128" version="1.1" viewBox="0 0 33.9 33.9" xmlns="http://www.w3.org/2000/svg">
 <g id="layer1">
  <g stroke="#797376">
   <path id="pathTop" d="m20.4 3.03c5.34e-4 0.0748 0.0131 1.84 0.0199 2.79 0 0-6.11 6.38e-5 -6.11 6.38e-5 -0.0053-0.952-0.015-2.71 7.08e-4 -2.8 0.0157-0.0859 0.297-0.302 1.67-0.422 1.37-0.12 1.39-0.12 2.75-0.00201 1.36 0.118 1.64 0.331 1.65 0.343 0.0156 0.0122 0.0156 0.0122 0.0161 0.0871z" fill="#797376"/>
   <path id="pathBattery" d="m24 7.59c0.187 0.181 0.187 22 0 22.1-0.187 0.181-0.819 0.794-1.02 0.987-0.199 0.193-11.4 0.193-11.6 0-0.199-0.193-0.831-0.805-1.02-0.987-0.187-0.181-0.187-22 0-22.1 0.187-0.181 0.819-0.794 1.41-0.991 0.594-0.197 1.66-0.209 2.59-0.219l5.72-5e-7s2.73 0.0306 2.93 0.223 0.831 0.805 1.02 0.987z" fill="#03a9f4" stroke-width="1.59px"/>
   <ellipse id="pathFace" cx="17" cy="18.3" rx="9.64" ry="8.36" fill="#dce6eb" stroke-linecap="square" stroke-linejoin="round" stroke-width="1.59px" style="paint-order:fill markers stroke"/>
  </g>
  <g id="pathEye1" transform="matrix(.473 0 0 .412 10.8 12.5)" stroke-linecap="square" stroke-linejoin="round">
   <path id="path3109-0-9" d="m10.6 4.4c1.81 1.58 1.72 4.75-0.143 6.34-1.86 1.58-5.5 1.59-7.29 0.0095-1.81-1.58-1.78-4.75 0.0778-6.34 1.87-1.59 5.55-1.61 7.4-0.0276z" color="#000000" fill="#f8f6f5" stroke="#282529" stroke-width=".496" style="-inkscape-stroke:none;paint-order:fill markers stroke"/>
   <path id="path3107-7-0" d="m4.8 7.65a2.13 1.91 0 0 0 2.13 1.91 2.13 1.91 0 0 0 2.13-1.91 2.13 1.91 0 0 0-2.13-1.91 2.13 1.91 0 0 0-2.13 1.91z" color="#000000" fill="#09210f" stroke="#03a9f4" stroke-width="1.2" style="paint-order:fill markers stroke"/>
  </g>
  <g id="pathEye2" transform="matrix(.473 0 0 .412 17 12.5)" stroke-linecap="square" stroke-linejoin="round">
   <path id="path3109-0" d="m10.6 4.4c1.81 1.58 1.72 4.75-0.143 6.34-1.86 1.58-5.5 1.59-7.29 0.0095-1.81-1.58-1.78-4.75 0.0778-6.34 1.87-1.59 5.55-1.61 7.4-0.0276z" color="#000000" fill="#f8f6f5" stroke="#282529" stroke-width=".496" style="-inkscape-stroke:none;paint-order:fill markers stroke"/>
   <path id="path3107-7" d="m4.8 7.65a2.13 1.91 0 0 0 2.13 1.91 2.13 1.91 0 0 0 2.13-1.91 2.13 1.91 0 0 0-2.13-1.91 2.13 1.91 0 0 0-2.13 1.91z" color="#000000" fill="#09210f" stroke="#03a9f4" stroke-width="1.2" style="paint-order:fill markers stroke"/>
  </g>
  <path id="pathNose" d="m17.4 18.3c0.447 0.0248 1.35 0.0747 1.52 0.281 0.17 0.206 0.139 1.15-0.658 1.7-0.797 0.552-1.78 0.587-2.38 0.256s-0.969-1.73-0.858-1.93 0.929-0.259 1.43-0.296c0.498-0.0367 0.498-0.0367 0.946-0.012z" fill="#282529"/>
  <path id="pathMouth" d="m16.9 22.1c-3.11 1.22e-4 -5.63-1.44-5.63-1.39-0.0059 0.0493 3.03 2.95 5.45 2.95 2.42-1.51e-4 6.1-2.9 6.11-2.95 0.0059-0.0499-2.82 1.38-5.93 1.38z" fill="#282529" fill-rule="evenodd"/>
  <g stroke-width=".265px">
   <path id="pathSmile1" d="m10.6 21.2c0-0.441 0-0.882 0.221-1.1 0.221-0.221 0.662-0.221 1.1-0.221" fill="none" stroke="#282529"/>
   <path id="pathSmile2" d="m23.8 21.2c0-0.441 0-0.882-0.221-1.1-0.221-0.221-0.662-0.221-1.1-0.221" fill="none" stroke="#282529"/>
   <path id="pathPlus" d="m18.7 25.4 2.99-0.0447v-3.04h3.02l0.0223 2.95 3.04 0.067 0.0223 3.1h-3.1l0.0447 2.99h-2.95l-0.0223-3.06h-3.02z" fill="#0fca17" stroke="#797376"/>
  </g>
 </g>
</svg>
